<svg width="117" height="115" viewBox="0 0 117 115" fill="none" xmlns="http://www.w3.org/2000/svg">
<path d="M58.8063 115C71.2648 115 82.657 112.119 90.2968 106.954C91.3216 106.261 91.8848 105.081 91.8848 103.844V97.0497C91.8848 95.4749 90.1343 94.4974 88.7276 95.2054C81.1838 99.0023 71.5362 100.778 58.8063 100.778C33.6911 100.778 16.5393 82.2655 16.5393 57.3774C16.5393 32.7345 33.8136 13.9765 59.1738 13.9765C85.0241 13.9765 100.461 30.6503 100.461 53.3316C100.461 65.8369 96.6628 73.4382 90.9047 73.4382C87.2293 73.4382 85.6366 70.3731 85.6366 66.2047V37.0181C85.6366 33.7044 82.9504 31.0181 79.6366 31.0181H72.8524C70.6432 31.0181 68.8524 32.809 68.8524 35.0181V36.5352C65.667 32.1215 60.7665 29.5469 54.0283 29.5469C38.3466 29.5469 27.688 41.3166 27.688 57.9904C27.688 74.2964 38.3466 85.9435 54.0283 85.9435C61.134 85.9435 66.2796 83.2463 69.71 78.2196L70.3225 79.323C73.3853 84.7175 79.511 88.5181 86.8618 88.5181C104.259 88.5181 117 72.9478 117 53.0864C117 24.3977 95.8052 0 59.1738 0C23.2775 0 0 26.4819 0 57.3774C0 89.4989 23.4 115 58.8063 115ZM56.4785 71.4766C49.4953 71.4766 44.8398 65.7143 44.8398 57.9904C44.8398 49.7761 49.4953 44.2591 56.4785 44.2591C63.8293 44.2591 68.6073 49.7761 68.6073 57.9904C68.6073 65.7143 63.8293 71.4766 56.4785 71.4766Z" fill="#2385F8"/>
</svg>
